{"title":"Country Strong (2010) 720p BRrip x264 Junaid-Zia (PimpRG)","uid":9055230,"size":965868366,"categoryP":"video","categoryS":"hd___movies","magnet":"?xt=urn:btih:c697d2f6ff4a614c9fc96aaf4b879a877f5596c1&amp;dn=Country+Strong+%282010%29+720p+BRrip+x264+Junaid-Zia+%28PimpRG%29&amp;tr=udp%3A%2F%2Ftracker.openbittorrent.com%3A80&amp;tr=udp%3A%2F%2Fopen.demonii.com%3A1337&amp;tr=udp%3A%2F%2Ftracker.coppersurfer.tk%3A6969&amp;tr=udp%3A%2F%2Fexodus.desync.com%3A6969","seeders":3,"leechers":1,"uploader":"junaidzia","files":-1,"time":1381938562,"description":" &lt;a href=&quot;http://imageshack.us/a/img198/739/4eyl.jpg&quot; rel=&quot;nofollow&quot; target=&quot;_NEW&quot;&gt;http://imageshack.us/a/img198/739/4eyl.jpg&lt;/a&gt;\n\n*******************************************************************************\n\nCountry Strong (2010) 720p BRrip x264 Junaid-Zia (PimpRG)\n\n*******************************************************************************\n\nIMDB :\n\n          ****  &lt;a href=&quot; http://www.imdb.com/title/tt1555064/&quot; rel=&quot;nofollow&quot; target=&quot;_NEW&quot;&gt; http://www.imdb.com/title/tt1555064/&lt;/a&gt;   *****\n\nDetails :\n\nGeneral\nFormat                         : Matroska\nFile size                      : 898 MiB\nDuration                       : 1h 57mn\nOverall bit rate               : 1 072 Kbps\nEncoded date                   : UTC 2013-10-11 14:51:55\n\n\nVideo\nID                             : 1\nFormat                         : AVC\nFormat/Info                    : Advanced Video Codec\nFormat profile                 : &lt;a class=&quot;__cf_email__&quot; href=&quot;/cdn-cgi/l/email-protection&quot; data-cfemail=&quot;b8f0d1dfd0f8f48c9689&quot;&gt;[email&amp;#160;protected]&lt;/a&gt;&lt;script cf-hash='f9e31' type=&quot;text/javascript&quot;&gt;\n/* &lt;![CDATA[ */!function(){try{var t=&quot;currentScript&quot;in document?document.currentScript:function(){for(var t=document.getElementsByTagName(&quot;script&quot;),e=t.length;e--;)if(t[e].getAttribute(&quot;cf-hash&quot;))return t[e]}();if(t&amp;&amp;t.previousSibling){var e,r,n,i,c=t.previousSibling,a=c.getAttribute(&quot;data-cfemail&quot;);if(a){for(e=&quot;&quot;,r=parseInt(a.substr(0,2),16),n=2;a.length-n;n+=2)i=parseInt(a.substr(n,2),16)^r,e+=String.fromCharCode(i);e=document.createTextNode(e),c.parentNode.replaceChild(e,c)}}}catch(u){}}();/* ]]&gt; */&lt;/script&gt;\nFormat settings, CABAC         : Yes\nFormat settings, ReFrames      : 5 frames\nCodec ID                       : V_MPEG4/ISO/AVC\nDuration                       : 1h 57mn\nBit rate                       : 878 Kbps\nWidth                          : 1 280 pixels\nHeight                         : 528 pixels\nDisplay aspect ratio           : 2.40:1\nFrame rate mode                : Constant\nFrame rate                     : 23.976 fps\nColor space                    : YUV\nChroma subsampling             : 4:2:0\nBit depth                      : 8 bits\nScan type                      : Progressive\nSource                         : countrystrong\nStream size                    : 719 MiB (80%)\nTitle                          : *** Encoded by: Junaid-Zia ***\nLanguage                       : English\n\nAudio\nID                             : 2\nFormat                         : AC-3\nFormat/Info                    : Audio Coding 3\nMode extension                 : CM (complete main)\nFormat settings, Endianness    : Big\nCodec ID                       : A_AC3\nDuration                       : 1h 57mn\nBit rate mode                  : Constant\nBit rate                       : 192 Kbps\nChannel(s)                     : 6 channels\nChannel positions              : Front: L C R, Side: L R, LFE\nSampling rate                  : 48.0 KHz\nBit depth                      : 16 bits\nCompression mode               : Lossy\nStream size                    : 161 MiB (18%)\nTitle                          : *** Encoded by: Junaid-Zia ***\nLanguage                       : English\n\nText\nID                             : 3\nFormat                         : UTF-8\nCodec ID                       : S_TEXT/UTF8\nCodec ID/Info                  : UTF-8 Plain Text\nTitle                          : Muxed\nLanguage                       : English\n\n\nScreens :\n &lt;a href=&quot;\nhttp://imageshack.us/scaled/large/33/bplx.jpg&quot; rel=&quot;nofollow&quot; target=&quot;_NEW&quot;&gt;\nhttp://imageshack.us/scaled/large/33/bplx.jpg&lt;/a&gt; &lt;a href=&quot;\nhttp://imageshack.us/scaled/large/841/nsve.jpg&quot; rel=&quot;nofollow&quot; target=&quot;_NEW&quot;&gt;\nhttp://imageshack.us/scaled/large/841/nsve.jpg&lt;/a&gt; &lt;a href=&quot;\nhttp://imageshack.us/scaled/large/818/3rfa.jpg&quot; rel=&quot;nofollow&quot; target=&quot;_NEW&quot;&gt;\nhttp://imageshack.us/scaled/large/818/3rfa.jpg&lt;/a&gt; &lt;a href=&quot;\nhttp://imageshack.us/scaled/large/20/5n12.jpg&quot; rel=&quot;nofollow&quot; target=&quot;_NEW&quot;&gt;\nhttp://imageshack.us/scaled/large/20/5n12.jpg&lt;/a&gt; &lt;a href=&quot;\nhttp://imageshack.us/scaled/large/853/x3kg.jpg&quot; rel=&quot;nofollow&quot; target=&quot;_NEW&quot;&gt;\nhttp://imageshack.us/scaled/large/853/x3kg.jpg&lt;/a&gt; &lt;a href=&quot;\nhttp://imageshack.us/scaled/large/14/aqbf.jpg&quot; rel=&quot;nofollow&quot; target=&quot;_NEW&quot;&gt;\nhttp://imageshack.us/scaled/large/14/aqbf.jpg&lt;/a&gt; &lt;a href=&quot;\nhttp://imageshack.us/scaled/large/844/cu2i.jpg&quot; rel=&quot;nofollow&quot; target=&quot;_NEW&quot;&gt;\nhttp://imageshack.us/scaled/large/844/cu2i.jpg&lt;/a&gt; &lt;a href=&quot;\nhttp://imageshack.us/scaled/large/197/et7g.jpg&quot; rel=&quot;nofollow&quot; target=&quot;_NEW&quot;&gt;\nhttp://imageshack.us/scaled/large/197/et7g.jpg&lt;/a&gt; &lt;a href=&quot;\nhttp://imageshack.us/scaled/large/600/99wq.jpg&quot; rel=&quot;nofollow&quot; target=&quot;_NEW&quot;&gt;\nhttp://imageshack.us/scaled/large/600/99wq.jpg&lt;/a&gt;\n\n\nOfficial Website: &lt;a href=&quot;\nhttp://pimp4003.se/&quot; rel=&quot;nofollow&quot; target=&quot;_NEW&quot;&gt;\nhttp://pimp4003.se/&lt;/a&gt;\n\n[b]Seed After Downloading, Remember Sharing is Caring.[/b]","torrent":{"xt":"urn:btih:c697d2f6ff4a614c9fc96aaf4b879a877f5596c1","amp;dn":"Country+Strong+%282010%29+720p+BRrip+x264+Junaid-Zia+%28PimpRG%29","amp;tr":["udp%3A%2F%2Ftracker.openbittorrent.com%3A80","udp%3A%2F%2Fopen.demonii.com%3A1337","udp%3A%2F%2Ftracker.coppersurfer.tk%3A6969","udp%3A%2F%2Fexodus.desync.com%3A6969"],"infoHash":"c697d2f6ff4a614c9fc96aaf4b879a877f5596c1","infoHashBuffer":{"type":"Buffer","data":[198,151,210,246,255,74,97,76,159,201,106,175,75,135,154,135,127,85,150,193]},"announce":[],"urlList":[]}}